<?xml version="1.0" encoding="UTF-8"?>
<svg width="25px" height="25px" viewBox="0 0 33 36" version="1.1" xmlns="http://www.w3.org/2000/svg" xmlns:xlink="http://www.w3.org/1999/xlink">
    <!-- Generator: Sketch 43.1 (39012) - http://www.bohemiancoding.com/sketch -->
    <title>move-arrow</title>
    <desc>Created with Sketch.</desc>
    <defs></defs>
    <g id="Page-1" stroke="none" stroke-width="1" fill="none" fill-rule="evenodd">
        <g id="move-arrow" transform="translate(1.000000, 1.000000)" stroke="#FFFFFF" stroke-width="0.3" fill="#60A628" fill-rule="nonzero">
            <path d="M29.9439845,31.6542636 L1.1567907,31.6542636 C0.524496124,31.6542636 0.0116847545,32.1670749 0.0116847545,32.7993695 C0.0116847545,33.4316641 0.524320413,33.9444755 1.1567907,33.9444755 L29.9438966,33.9444755 C30.5763669,33.9444755 31.0890026,33.4318398 31.0890026,32.7993695 C31.0890026,32.1670749 30.5763669,31.6542636 29.9439845,31.6542636 Z" id="Shape"></path>
            <path d="M27.1401705,15.5442377 C26.7189044,15.0727183 25.9950646,15.0316899 25.5232817,15.4530439 L16.6954057,23.3393747 L16.6954057,1.14633592 C16.6954057,0.514041344 16.18277,0.00122997416 15.5502997,0.00122997416 C14.9180052,0.00122997416 14.4051938,0.513865633 14.4051938,1.14633592 L14.4051938,23.3393747 L5.57731783,15.4531318 C5.10579845,15.0317778 4.3818708,15.0728941 3.96042894,15.5443256 C3.53925065,16.0160207 3.57992765,16.7399483 4.05153488,17.1612145 L13.6430491,25.729478 C14.1866098,26.21523 14.8682791,26.4579742 15.5502119,26.4579742 C16.2318811,26.4579742 16.9136382,26.21523 17.4573747,25.7297416 L27.0488889,17.1612145 C27.5206718,16.7396848 27.5614367,16.0157571 27.1401705,15.5442377 Z" id="Shape"></path>
        </g>
    </g>
</svg>