<?xml version="1.0" encoding="iso-8859-1"?>
<!-- Generator: Adobe Illustrator 19.0.0, SVG Export Plug-In . SVG Version: 6.00 Build 0)  -->
<svg version="1.1" id="Layer_1" xmlns="http://www.w3.org/2000/svg" xmlns:xlink="http://www.w3.org/1999/xlink" x="0px" y="0px"
	 viewBox="0 0 512 512" style="enable-background:new 0 0 512 512;" xml:space="preserve">
<g>
	<g>
		<path d="M500.406,223.531l-4.469-5.211c-9.875-11.531-16.094-34.734-13.312-49.664l1.266-6.742
			c2.125-11.289-0.078-23.336-6.188-33.914s-15.438-18.508-26.266-22.32l-6.484-2.281c-14.328-5.047-31.312-22.031-36.359-36.359
			l-2.281-6.469c-6.781-19.266-26.859-33.25-47.766-33.25c-2.844,0-5.688,0.266-8.453,0.781l-6.75,1.266
			c-2.391,0.445-5.062,0.672-7.922,0.672c-14.734,0-32.297-5.883-41.75-13.984l-5.203-4.461C279.75,4.117,268.219,0,256,0
			s-23.75,4.117-32.469,11.594l-5.203,4.461c-9.453,8.102-27.016,13.984-41.75,13.984c-2.875,0-5.531-0.227-7.922-0.672l-6.75-1.266
			c-2.75-0.516-5.609-0.773-8.469-0.773c-20.891,0-40.969,13.977-47.766,33.242l-2.266,6.469
			c-5.047,14.328-22.047,31.312-36.359,36.359l-6.484,2.281c-10.828,3.812-20.156,11.742-26.266,22.32
			c-6.11,10.578-8.312,22.625-6.188,33.914l1.25,6.742c2.797,14.93-3.422,38.133-13.297,49.664l-4.469,5.211
			C4.109,232.258,0,243.789,0,256s4.125,23.75,11.594,32.469l4.469,5.203c9.875,11.531,16.094,34.734,13.297,49.672l-1.25,6.75
			c-2.125,11.281,0.078,23.328,6.188,33.906c6.11,10.578,15.438,18.5,26.281,22.312l6.469,2.281
			c14.312,5.047,31.312,22.031,36.359,36.359l2.281,6.484c6.781,19.25,26.859,33.234,47.75,33.234c2.875,0,5.719-0.266,8.469-0.781
			l6.75-1.266c2.391-0.438,5.047-0.656,7.922-0.656c14.734,0,32.297,5.875,41.734,13.969l5.219,4.469
			C232.25,507.875,243.781,512,256,512s23.75-4.125,32.469-11.594l5.203-4.469c9.453-8.094,27.016-13.969,41.75-13.969
			c2.875,0,5.531,0.219,7.922,0.656l6.734,1.281c2.766,0.5,5.609,0.766,8.469,0.766c20.906,0,40.984-13.984,47.766-33.234
			l2.281-6.484c5.047-14.328,22.031-31.312,36.359-36.359l6.484-2.281c10.828-3.812,20.156-11.734,26.266-22.312
			s8.297-22.625,6.188-33.906l-1.266-6.75c-2.781-14.938,3.438-38.141,13.312-49.656l4.469-5.219
			C507.875,279.75,512,268.219,512,256C512,243.789,507.875,232.258,500.406,223.531z M484.203,274.594l-4.453,5.188
			c-14.141,16.5-22.078,46.141-18.094,67.484l1.266,6.734c2.438,13.062-6.062,27.781-18.578,32.188l-6.469,2.281
			c-20.484,7.219-42.188,28.922-49.406,49.406l-2.266,6.469c-3.828,10.828-15.703,19-27.656,19c-1.531,0-3.062-0.141-4.531-0.406
			l-6.75-1.281c-3.672-0.688-7.656-1.031-11.844-1.031c-19.938,0-42.297,7.688-55.625,19.125l-5.219,4.469
			c-4.859,4.156-11.453,6.438-18.578,6.438s-13.719-2.281-18.578-6.438l-5.219-4.469c-13.344-11.438-35.688-19.125-55.625-19.125
			c-4.188,0-8.172,0.344-11.844,1.031l-6.75,1.266c-1.469,0.281-2.984,0.422-4.547,0.422c-11.938,0-23.828-8.172-27.641-19
			l-2.281-6.469c-7.203-20.5-28.906-42.188-49.391-49.406l-6.469-2.281c-12.514-4.408-21.03-19.127-18.577-32.189l1.266-6.734
			c3.984-21.359-3.953-50.984-18.094-67.484l-4.453-5.188c-8.641-10.086-8.641-27.102,0-37.18l4.453-5.211
			c14.141-16.484,22.078-46.125,18.078-67.469l-1.25-6.75c-2.453-13.039,6.062-27.773,18.578-32.18l6.469-2.281
			c20.484-7.219,42.188-28.914,49.391-49.398l2.281-6.469c3.812-10.828,15.703-19,27.641-19c1.547,0,3.078,0.141,4.547,0.414
			l6.75,1.266c3.672,0.688,7.656,1.039,11.844,1.039c19.938,0,42.281-7.688,55.625-19.117l5.219-4.469
			c4.859-4.164,11.453-6.453,18.578-6.453s13.719,2.289,18.578,6.453l5.219,4.469c13.328,11.43,35.688,19.117,55.625,19.117
			c4.188,0,8.172-0.352,11.844-1.039l6.75-1.266c1.469-0.273,3-0.414,4.531-0.414c11.953,0,23.844,8.164,27.656,19l2.266,6.469
			c7.219,20.484,28.922,42.18,49.406,49.398l6.469,2.281c12.516,4.406,21.031,19.141,18.578,32.18l-1.266,6.75
			c-3.984,21.344,3.953,50.984,18.094,67.477l4.453,5.203C492.844,247.492,492.844,264.508,484.203,274.594z"/>
	</g>
</g>
<g>
	<g>
		<path d="M362.672,138.664c-2.953,0-5.609,1.195-7.547,3.125L141.797,355.125c-1.938,1.938-3.125,4.594-3.125,7.531
			c0,5.906,4.766,10.688,10.656,10.688c2.953,0,5.609-1.203,7.547-3.125l213.328-213.344c1.938-1.93,3.125-4.594,3.125-7.539
			C373.328,143.445,368.562,138.664,362.672,138.664z"/>
	</g>
</g>
<g>
	<g>
		<path d="M192,138.664c-29.453,0-53.328,23.883-53.328,53.336s23.875,53.336,53.328,53.336s53.328-23.883,53.328-53.336
			S221.453,138.664,192,138.664z M192,224c-17.641,0-32-14.352-32-32s14.359-32,32-32s32,14.352,32,32S209.641,224,192,224z"/>
	</g>
</g>
<g>
	<g>
		<path d="M320,266.664c-29.453,0-53.328,23.883-53.328,53.336s23.875,53.344,53.328,53.344s53.328-23.891,53.328-53.344
			S349.453,266.664,320,266.664z M320,352c-17.641,0-32-14.344-32-32s14.359-32,32-32s32,14.344,32,32S337.641,352,320,352z"/>
	</g>
</g>
<g>
</g>
<g>
</g>
<g>
</g>
<g>
</g>
<g>
</g>
<g>
</g>
<g>
</g>
<g>
</g>
<g>
</g>
<g>
</g>
<g>
</g>
<g>
</g>
<g>
</g>
<g>
</g>
<g>
</g>
</svg>
