<?xml version="1.0" encoding="UTF-8" standalone="no"?>
<svg width="28px" height="28px" viewBox="0 0 60 60" version="1.1" xmlns="http://www.w3.org/2000/svg" xmlns:xlink="http://www.w3.org/1999/xlink">
    <!-- Generator: Sketch 40.3 (33839) - http://www.bohemiancoding.com/sketch -->
    <title>users (2)</title>
    <desc>Created with Sketch.</desc>
    <defs>
        <path d="M55.517,44.55 L45.744,40.317 C45.514,40.202 45.259,39.921 45.04,39.546 L51.565,39.541 C51.679,39.552 54.369,39.798 56.526,38.871 C57.343,38.519 57.951,37.824 58.195,36.964 C58.441,36.096 58.285,35.177 57.769,34.441 C55.904,31.787 51.551,24.852 51.415,17.818 C51.412,17.697 51.018,5.735 39.205,5.638 C37.466,5.652 35.858,5.947 34.395,6.491 C34.076,5.678 33.606,4.83 32.907,4.032 C30.854,1.688 27.521,0.5 23,0.5 C18.479,0.5 15.146,1.688 13.092,4.03 C10.724,6.731 10.944,10.006 11,10.555 L11,15.874 C10.36,16.603 10,17.536 10,18.499 L10,22.499 C10,23.716 10.553,24.851 11.497,25.608 C12.413,29.235 14.33,31.968 15,32.845 L15,36.154 C15,37.122 14.472,38.01 13.623,38.474 L4.702,43.34 C1.801,44.924 0,47.958 0,51.262 L0,55.5 L44,55.5 L46,55.5 L60,55.5 L60,51.803 C60,48.711 58.282,45.933 55.517,44.55 L55.517,44.55 Z M44,53.5 L2,53.5 L2,51.262 C2,48.691 3.402,46.328 5.659,45.098 L14.58,40.232 C16.073,39.417 17,37.854 17,36.155 L17,32.136 L16.767,31.858 C16.743,31.829 14.292,28.864 13.357,24.793 L13.266,24.397 L12.925,24.177 C12.346,23.803 12,23.176 12,22.5 L12,18.5 C12,17.939 12.238,17.416 12.67,17.025 L13,16.728 L13,10.5 L12.991,10.369 C12.988,10.342 12.648,7.57 14.596,5.348 C16.253,3.458 19.081,2.5 23,2.5 C26.905,2.5 29.727,3.451 31.386,5.328 C32.211,6.26 32.626,7.301 32.833,8.195 C32.849,8.265 32.864,8.334 32.878,8.403 C32.892,8.474 32.907,8.545 32.918,8.613 C32.931,8.691 32.942,8.765 32.953,8.839 C32.961,8.892 32.969,8.946 32.975,8.997 C32.99,9.121 33.002,9.241 33.01,9.352 C33.011,9.361 33.011,9.369 33.011,9.378 C33.018,9.486 33.023,9.588 33.026,9.681 C33.026,9.699 33.026,9.714 33.027,9.732 C33.029,9.815 33.029,9.894 33.028,9.963 L33.028,9.993 C33.024,10.228 33.008,10.368 33.008,10.371 L33,16.728 L33.33,17.026 C33.762,17.416 34,17.939 34,18.5 L34,22.5 C34,23.373 33.428,24.137 32.578,24.399 L32.08,24.552 L31.92,25.047 C31.251,27.128 30.298,29.05 29.086,30.76 C28.789,31.181 28.5,31.554 28.249,31.839 L28,32.123 L28,36.248 C28,36.501 28.025,36.749 28.064,36.993 C28.072,37.045 28.086,37.095 28.096,37.147 C28.135,37.348 28.187,37.545 28.251,37.737 C28.266,37.782 28.282,37.825 28.299,37.87 C28.377,38.079 28.468,38.281 28.574,38.475 C28.586,38.497 28.597,38.52 28.609,38.542 C28.754,38.798 28.921,39.041 29.113,39.265 L29.341,39.546 L29.38,39.546 C29.723,39.884 30.117,40.178 30.565,40.402 L40.118,45.178 C42.513,46.374 44,48.78 44,51.457 L44,53.5 L44,53.5 Z M58,53.5 L46,53.5 L46,51.457 C46,48.018 44.089,44.927 41.014,43.389 L34.156,39.959 C34.325,39.573 34.347,39.131 34.199,38.705 C33.954,38 33.314,37.545 32.569,37.545 L30.352,37.545 C30.306,37.464 30.276,37.375 30.239,37.289 C30.189,37.174 30.13,37.061 30.097,36.94 C30.036,36.718 30,36.486 30,36.248 L30,32.867 C30.229,32.587 30.47,32.268 30.719,31.916 C31.958,30.166 32.951,28.218 33.673,26.117 C35.084,25.47 36,24.075 36,22.5 L36,18.5 C36,17.537 35.64,16.604 35,15.875 L35,10.556 C35.026,10.306 35.082,9.487 34.916,8.417 C36.204,7.911 37.647,7.65 39.206,7.637 C49.047,7.718 49.406,17.448 49.416,17.858 C49.563,25.441 54.162,32.785 56.133,35.59 C56.302,35.83 56.353,36.132 56.272,36.417 C56.226,36.581 56.094,36.879 55.737,37.032 C54.057,37.755 51.778,37.55 51.661,37.545 L44.778,37.545 C44.135,37.545 43.549,37.872 43.21,38.419 C42.872,38.964 42.84,39.63 43.124,40.202 C43.437,40.833 43.99,41.676 44.899,42.129 L54.646,46.351 C56.715,47.396 58,49.482 58,51.803 L58,53.5 L58,53.5 Z" id="path-1"></path>
        <mask id="mask-2" maskContentUnits="userSpaceOnUse" maskUnits="objectBoundingBox" x="-1" y="-1" width="28px" height="28px">
            <rect x="-1" y="-0.5" width="28px" height="28px" fill="white"></rect>
            <use xlink:href="#path-1" fill="black"></use>
        </mask>
    </defs>
    <g id="Page-1" stroke="none" stroke-width="1" fill="none" fill-rule="evenodd">
        <g id="users-(2)" transform="translate(1.000000, 1.000000)">
            <g id="Shape">
                <use fill="#fff" fill-rule="evenodd" xlink:href="#path-1"></use>
                <use stroke="#fff" mask="url(#mask-2)" stroke-width="2" xlink:href="#path-1"></use>
            </g>
        </g>
    </g>
</svg>