<?xml version="1.0" encoding="iso-8859-1"?>
<!-- Generator: Adobe Illustrator 19.0.0, SVG Export Plug-In . SVG Version: 6.00 Build 0)  -->
<svg version="1.1" id="Capa_1" xmlns="http://www.w3.org/2000/svg" xmlns:xlink="http://www.w3.org/1999/xlink" x="0px" y="0px"
	 viewBox="0 0 496 496" style="enable-background:new 0 0 496 496;" xml:space="preserve">
<g>
	<g>
		<g>
			<path d="M408,320c-15.8,0-30.6,4.24-43.432,11.56l-28-40.248c11.16-9.392,19.904-21.512,25.32-35.312H416
				c44.112,0,80-35.888,80-80c0-36.176-23.704-67.176-58.112-76.888C428.192,51.744,386.192,16,336,16
				c-18.696,0-36.208,5.024-51.384,13.696C260.6,10.576,230.864,0,200,0C146.216,0,97.304,32.232,75.68,80.968
				C32.984,86.992,0,123.672,0,168c0,48.52,39.48,88,88,88h72v-16H88c-39.696,0-72-32.296-72-72s32.304-72,72-72s72,32.296,72,72h16
				c0-46.576-36.392-84.704-82.216-87.704C114.304,41.328,155.232,16,200,16c25.576,0,50.32,8.144,70.792,23.104
				C247.168,58.184,232,87.336,232,120h16c0-48.52,39.48-88,88-88c48.52,0,88,39.48,88,88c0,10.072-1.68,19.936-5.008,29.336
				l15.088,5.328C438.008,143.552,440,131.888,440,120c0-1.152-0.136-2.264-0.176-3.408C463.896,126.152,480,149.32,480,176
				c0,35.288-28.712,64-64,64h-49.528c0.96-5.2,1.528-10.528,1.528-16c0-48.52-39.48-88-88-88c-48.52,0-88,39.48-88,88
				c0,5.472,0.568,10.8,1.528,16H176v16h22.112c1.64,4.192,3.592,8.216,5.832,12.064L154.8,302.872
				C138.656,284.016,114.72,272,88,272c-48.52,0-88,39.48-88,88c0,48.52,39.48,88,88,88s88-39.48,88-88
				c0-16.064-4.4-31.088-11.944-44.064l49.144-34.808C229.344,299.984,253.28,312,280,312c15.8,0,30.6-4.24,43.432-11.56l28,40.248
				C332.24,356.848,320,381.008,320,408c0,48.52,39.48,88,88,88c48.52,0,88-39.48,88-88C496,359.48,456.52,320,408,320z M88,432
				c-39.696,0-72-32.296-72-72c0-39.704,32.304-72,72-72s72,32.296,72,72C160,399.704,127.696,432,88,432z M280,296
				c-39.696,0-72-32.296-72-72s32.304-72,72-72s72,32.296,72,72S319.696,296,280,296z M408,480c-39.696,0-72-32.296-72-72
				c0-39.704,32.304-72,72-72s72,32.296,72,72C480,447.704,447.696,480,408,480z"/>
			<path d="M400,384h16c4.408,0,8,3.584,8,8h16c0-13.232-10.768-24-24-24v-16h-16v16c-13.232,0-24,10.768-24,24s10.768,24,24,24h16
				c4.408,0,8,3.584,8,8c0,4.416-3.584,8-8,8h-16c-4.408,0-8-3.584-8-8h-16c0,13.232,10.768,24,24,24v16h16v-16
				c13.232,0,24-10.768,24-24s-10.768-24-24-24h-16c-4.408,0-8-3.584-8-8C392,387.584,395.584,384,400,384z"/>
			<path d="M272,200h16c4.408,0,8,3.584,8,8h16c0-13.232-10.768-24-24-24v-16h-16v16c-13.232,0-24,10.768-24,24s10.768,24,24,24h16
				c4.408,0,8,3.584,8,8s-3.584,8-8,8h-16c-4.408,0-8-3.584-8-8h-16c0,13.232,10.768,24,24,24v16h16v-16c13.232,0,24-10.768,24-24
				s-10.768-24-24-24h-16c-4.408,0-8-3.584-8-8S267.584,200,272,200z"/>
			<path d="M80,336h16c4.408,0,8,3.584,8,8h16c0-13.232-10.768-24-24-24v-16H80v16c-13.232,0-24,10.768-24,24s10.768,24,24,24h16
				c4.408,0,8,3.584,8,8c0,4.416-3.584,8-8,8H80c-4.408,0-8-3.584-8-8H56c0,13.232,10.768,24,24,24v16h16v-16
				c13.232,0,24-10.768,24-24s-10.768-24-24-24H80c-4.408,0-8-3.584-8-8C72,339.584,75.584,336,80,336z"/>
		</g>
	</g>
</g>
<g>
</g>
<g>
</g>
<g>
</g>
<g>
</g>
<g>
</g>
<g>
</g>
<g>
</g>
<g>
</g>
<g>
</g>
<g>
</g>
<g>
</g>
<g>
</g>
<g>
</g>
<g>
</g>
<g>
</g>
</svg>
