<?xml version="1.0" encoding="UTF-8" standalone="no"?>
<svg width="30px" height="30px" viewBox="0 0 490 458" version="1.1" xmlns="http://www.w3.org/2000/svg" xmlns:xlink="http://www.w3.org/1999/xlink">
    <!-- Generator: Sketch 39.1 (31720) - http://www.bohemiancoding.com/sketch -->
    <title>icon4</title>
    <desc>Created with Sketch.</desc>
    <defs></defs>
    <g id="Page-1" stroke="none" stroke-width="1" fill="none" fill-rule="evenodd">
        <g id="icon4" fill="#60a628">
            <g id="Group">
                <path d="M0,327.489004 L0,407.496473 C0,434.957469 23.5,457.382365 52.5,457.382365 L436.9,457.382365 C465.8,457.382365 489.4,435.05249 489.4,407.496473 L489.4,327.489004 C489.4,300.028008 465.9,277.603112 436.9,277.603112 L330.9,277.603112 C320.1,277.603112 311.1,285.394813 310,295.657054 C306.6,327.584025 278.5,351.624274 244.7,351.624274 C210.9,351.624274 182.8,327.584025 179.4,295.657054 C178.3,285.394813 169.3,277.603112 158.5,277.603112 L52.5,277.603112 C23.6,277.603112 0,299.932988 0,327.489004 L0,327.489004 Z M244.7,374.904357 C290.1,374.904357 328,343.262448 334,300.883195 L436.9,300.883195 C452.3,300.883195 464.9,312.760788 464.9,327.489004 L464.9,407.496473 C464.9,422.129668 452.4,434.102282 436.9,434.102282 L52.5,434.102282 C37.1,434.102282 24.5,422.224689 24.5,407.496473 L24.5,327.489004 C24.5,312.855809 37,300.883195 52.5,300.883195 L155.4,300.883195 C161.4,343.262448 199.3,374.904357 244.7,374.904357 L244.7,374.904357 Z" id="Shape"></path>
                <path d="M244.7,0.0475103734 C237.9,0.0475103734 232.4,5.27365145 232.4,11.7350622 L232.4,211.088589 L173.1,154.741286 C168.3,150.18029 160.6,150.18029 155.8,154.741286 C151,159.302282 151,166.61888 155.8,171.179876 L236,247.386515 C238.4,249.667012 241.5,250.807261 244.7,250.807261 C247.9,250.807261 251,249.667012 253.4,247.386515 L333.6,171.179876 C338.4,166.61888 338.4,159.302282 333.6,154.741286 C328.8,150.18029 321.1,150.18029 316.3,154.741286 L257,211.088589 L257,11.6400415 C256.9,5.27365145 251.5,0.0475103734 244.7,0.0475103734 L244.7,0.0475103734 Z" id="Shape"></path>
            </g>
        </g>
    </g>
</svg>