<?xml version="1.0" encoding="iso-8859-1"?>
<svg xmlns="http://www.w3.org/2000/svg" xmlns:xlink="http://www.w3.org/1999/xlink" version="1.1" viewBox="0 0 463 463" enable-background="new 0 0 463 463" width="30px" height="30px">
  <g>
    <g>
      <path d="m288,263.5c0,4.142 3.358,7.5 7.5,7.5s7.5-3.358 7.5-7.5c0-21.14-19.792-38.632-48-44.955v-11.045c0-4.142-3.358-7.5-7.5-7.5s-7.5,3.358-7.5,7.5v8.83c-2.785-0.21-5.617-0.33-8.5-0.33s-5.715,0.12-8.5,0.33v-8.83c0-4.142-3.358-7.5-7.5-7.5s-7.5,3.358-7.5,7.5v11.045c-28.208,6.324-48,23.815-48,44.955s19.792,38.632 48,44.955v64.48c-19.279-5.239-33-16.609-33-29.435 0-4.142-3.358-7.5-7.5-7.5s-7.5,3.358-7.5,7.5c0,21.14 19.792,38.632 48,44.955v11.045c0,4.142 3.358,7.5 7.5,7.5s7.5-3.358 7.5-7.5v-8.83c2.785,0.21 5.617,0.33 8.5,0.33s5.715-0.12 8.5-0.33v8.83c0,4.142 3.358,7.5 7.5,7.5s7.5-3.358 7.5-7.5v-11.045c28.208-6.324 48-23.815 48-44.955s-19.792-38.632-48-44.955v-64.48c19.279,5.239 33,16.609 33,29.435zm-113,0c0-12.826 13.721-24.196 33-29.435v58.87c-19.279-5.239-33-16.609-33-29.435zm56.5,112.5c-2.881,0-5.72-0.132-8.5-0.386v-64.944c2.785,0.21 5.617,0.33 8.5,0.33 2.881,0 5.72,0.132 8.5,0.386v64.229c-2.78,0.253-5.619,0.385-8.5,0.385zm56.5-32.5c0,12.826-13.721,24.196-33,29.435v-58.87c19.279,5.239 33,16.609 33,29.435zm-48-47.17c-2.785-0.21-5.617-0.33-8.5-0.33-2.881,0-5.72-0.132-8.5-0.386v-64.229c2.78-0.253 5.619-0.386 8.5-0.386s5.72,0.132 8.5,0.386v64.945z" fill="#60a628"/>
      <path d="m280.783,119.403c3.857-4.188 6.217-9.774 6.217-15.903 0-11.15-7.809-20.505-18.243-22.9 11.199-10.161 18.243-24.823 18.243-41.1v-24c0-8.547-6.953-15.5-15.5-15.5h-80c-8.547,0-15.5,6.953-15.5,15.5v24c0,16.277 7.044,30.939 18.243,41.1-10.434,2.395-18.243,11.75-18.243,22.9 0,6.129 2.36,11.715 6.217,15.903-68.383,21.093-118.217,84.882-118.217,160.097v112c0,39.425 32.075,71.5 71.5,71.5h192c39.425,0 71.5-32.075 71.5-71.5v-112c0-75.215-49.834-139.004-118.217-160.097zm-89.783-79.903v-24c0-0.276 0.224-0.5 0.5-0.5h80c0.276,0 0.5,0.224 0.5,0.5v24c0,19.768-14.241,36.264-33,39.792v-23.792c0-4.142-3.358-7.5-7.5-7.5s-7.5,3.358-7.5,7.5v23.792c-18.759-3.528-33-20.024-33-39.792zm8.5,72.5c-4.687,0-8.5-3.813-8.5-8.5s3.813-8.5 8.5-8.5h64c4.687,0 8.5,3.813 8.5,8.5s-3.813,8.5-8.5,8.5h-64zm184.5,279.5c0,31.154-25.346,56.5-56.5,56.5h-192c-31.154,0-56.5-25.346-56.5-56.5v-112c0-81.574 64.381-148.39 145-152.314v24.314c0,4.142 3.358,7.5 7.5,7.5s7.5-3.358 7.5-7.5v-24.314c80.619,3.924 145,70.74 145,152.314v112z" fill="#60a628"/>
    </g>
  </g>
</svg>
