<?xml version="1.0" encoding="iso-8859-1"?>
<!-- Generator: Adobe Illustrator 19.0.0, SVG Export Plug-In . SVG Version: 6.00 Build 0)  -->
<svg version="1.1" id="Capa_1" xmlns="http://www.w3.org/2000/svg" xmlns:xlink="http://www.w3.org/1999/xlink" x="0px" y="0px"
	 viewBox="0 0 512 512" style="enable-background:new 0 0 512 512;" xml:space="preserve">
<g>
	<g>
		<path d="M497,192.8h-42.992c-3.523-11.04-7.979-21.78-13.322-32.107l30.417-30.417c2.813-2.813,4.394-6.628,4.394-10.606
			c0-3.979-1.581-7.794-4.394-10.606L402.939,40.9c-5.857-5.858-15.354-5.858-21.213,0l-30.417,30.416
			c-10.329-5.343-21.068-9.798-32.109-13.322V15c0-8.284-6.716-15-15-15h-96.398c-8.284,0-15,6.716-15,15v42.992
			c-11.04,3.523-21.779,7.979-32.107,13.322l-30.416-30.416c-5.858-5.858-15.355-5.858-21.213,0L40.9,109.062
			c-2.813,2.813-4.393,6.628-4.393,10.606c0,3.979,1.58,7.793,4.393,10.606l30.417,30.417c-5.342,10.328-9.798,21.066-13.322,32.107
			H15c-8.284,0-15,6.716-15,15v96.399c0,8.284,6.716,15,15,15h42.993c3.524,11.04,7.98,21.778,13.323,32.107l-30.417,30.417
			c-2.813,2.813-4.393,6.628-4.393,10.607c0,3.978,1.581,7.794,4.393,10.606l68.167,68.165c5.858,5.857,15.355,5.857,21.213,0
			l30.417-30.416c10.329,5.343,21.066,9.798,32.106,13.322V497c0,8.284,6.716,15,15,15H304.2c8.284,0,15-6.716,15-15v-42.992
			c11.041-3.524,21.78-7.979,32.109-13.322l30.417,30.416c5.857,5.857,15.355,5.857,21.213,0l68.164-68.165
			c5.857-5.857,5.857-15.355,0-21.213l-30.417-30.417c5.344-10.329,9.799-21.066,13.323-32.107H497c8.284,0,15-6.716,15-15v-96.4
			C512,199.516,505.285,192.8,497,192.8z M482,289.199h-39.275c-6.845,0-12.822,4.634-14.527,11.263
			c-4.129,16.05-10.527,31.472-19.016,45.836c-3.483,5.893-2.534,13.397,2.307,18.238l27.794,27.794l-46.951,46.952l-27.794-27.793
			c-4.841-4.84-12.343-5.789-18.237-2.308c-14.364,8.486-29.787,14.885-45.841,19.017c-6.628,1.706-11.261,7.682-11.261,14.526V482
			h-66.398v-39.275c0-6.845-4.633-12.82-11.261-14.526c-16.05-4.131-31.472-10.529-45.837-19.017
			c-5.894-3.484-13.397-2.533-18.237,2.308l-27.794,27.793L72.718,392.33l27.793-27.794c4.84-4.84,5.79-12.343,2.308-18.236
			c-8.487-14.365-14.886-29.788-19.018-45.84c-1.706-6.628-7.682-11.261-14.526-11.261H30V222.8h39.275
			c6.844,0,12.82-4.633,14.526-11.261c4.133-16.053,10.531-31.476,19.018-45.84c3.482-5.893,2.532-13.396-2.308-18.236
			l-27.793-27.794l46.953-46.951l27.793,27.793c4.84,4.84,12.343,5.79,18.237,2.308c14.365-8.487,29.787-14.885,45.839-19.017
			c6.628-1.706,11.261-7.682,11.261-14.526V30H289.2v39.275c0,6.845,4.633,12.82,11.261,14.526
			c16.054,4.132,31.477,10.53,45.841,19.017c5.893,3.482,13.396,2.532,18.237-2.308l27.794-27.793l46.951,46.951l-27.793,27.794
			c-4.841,4.841-5.79,12.345-2.307,18.238c8.488,14.363,14.886,29.784,19.016,45.836c1.706,6.629,7.682,11.263,14.527,11.263H482
			V289.199z"/>
	</g>
</g>
<g>
	<g>
		<path d="M324.169,170.137c-6.489-5.15-15.923-4.067-21.075,2.422l-41.925,52.809c-1.691-0.281-3.416-0.434-5.165-0.434
			c-17.129,0-31.068,13.936-31.072,31.071c0.004,17.128,13.943,31.061,31.072,31.061c8.298,0,16.098-3.23,21.964-9.096
			c5.869-5.867,9.1-13.672,9.098-21.968c0.001-4.185-0.824-8.244-2.393-11.994l41.916-52.797
			C331.741,184.724,330.657,175.288,324.169,170.137z"/>
	</g>
</g>
<g>
</g>
<g>
</g>
<g>
</g>
<g>
</g>
<g>
</g>
<g>
</g>
<g>
</g>
<g>
</g>
<g>
</g>
<g>
</g>
<g>
</g>
<g>
</g>
<g>
</g>
<g>
</g>
<g>
</g>
</svg>
