<?xml version="1.0" encoding="iso-8859-1"?>
<!-- Generator: Adobe Illustrator 19.0.0, SVG Export Plug-In . SVG Version: 6.00 Build 0)  -->
<svg version="1.1" id="Capa_1" xmlns="http://www.w3.org/2000/svg" xmlns:xlink="http://www.w3.org/1999/xlink" x="0px" y="0px"
	 viewBox="0 0 480.034 480.034" style="enable-background:new 0 0 480.034 480.034;" xml:space="preserve">
<g>
	<g>
		<path d="M176.034,176.017c-8.832,0-16-7.2-16-16s7.168-16,16-16h32c8.832,0,16-7.168,16-16c0-8.832-7.168-16-16-16h-16v-16
			c0-8.832-7.168-16-16-16c-8.832,0-16,7.168-16,16v18.944c-18.592,6.624-32,24.224-32,45.056c0,26.464,21.536,48,48,48
			c8.832,0,16,7.2,16,16s-7.168,16-16,16h-32c-8.832,0-16,7.168-16,16c0,8.832,7.168,16,16,16h16v16c0,8.832,7.168,16,16,16
			c8.832,0,16-7.168,16-16v-18.944c18.592-6.624,32-24.224,32-45.056C224.034,197.553,202.498,176.017,176.034,176.017z"/>
	</g>
</g>
<g>
	<g>
		<path d="M176.034,16.017c-97.056,0-176,78.976-176,176c0,67.52,37.632,127.968,98.208,157.76c2.272,1.088,4.672,1.632,7.04,1.632
			c5.92,0,11.584-3.296,14.368-8.928c3.904-7.936,0.64-17.536-7.296-21.44c-49.536-24.352-80.32-73.76-80.32-129.024
			c0-79.392,64.608-144,144-144s144,64.608,144,144c0,47.808-23.712,92.512-63.424,119.584c-7.296,4.96-9.184,14.944-4.192,22.208
			c4.992,7.328,14.944,9.184,22.24,4.224c48.448-33.056,77.376-87.616,77.376-146.016C352.034,94.993,273.09,16.017,176.034,16.017z
			"/>
	</g>
</g>
<g>
	<g>
		<path d="M464.034,272.017h-96c-8.832,0-16,7.168-16,16c0,8.832,7.168,16,16,16h55.712L317.57,396.881l-118.4-59.2
			c-4.672-2.336-10.24-2.24-14.816,0.288l-176,96c-7.776,4.224-10.624,13.952-6.4,21.696c2.944,5.344,8.416,8.352,14.08,8.352
			c2.592,0,5.216-0.64,7.648-1.984l168.672-91.968l120.512,60.256c5.792,2.848,12.8,2.016,17.696-2.272l117.472-102.784v58.752
			c0,8.832,7.168,16,16,16c8.832,0,16-7.168,16-16v-96C480.034,279.185,472.866,272.017,464.034,272.017z"/>
	</g>
</g>
<g>
</g>
<g>
</g>
<g>
</g>
<g>
</g>
<g>
</g>
<g>
</g>
<g>
</g>
<g>
</g>
<g>
</g>
<g>
</g>
<g>
</g>
<g>
</g>
<g>
</g>
<g>
</g>
<g>
</g>
</svg>
