<?xml version="1.0" encoding="iso-8859-1"?>
<!-- Generator: Adobe Illustrator 19.0.0, SVG Export Plug-In . SVG Version: 6.00 Build 0)  -->

<svg version="1.1" id="Layer_1" xmlns="http://www.w3.org/2000/svg" xmlns:xlink="http://www.w3.org/1999/xlink" x="0px" y="0px"
	 viewBox="0 0 512.001 512.001" style="enable-background:new 0 0 512.001 512.001;" xml:space="preserve">
<path d="M337.019,512c-0.091,0-0.179,0-0.269-0.002H211.366c-0.179,0.003-0.36,0.003-0.54,0H85.447c-0.179,0.003-0.36,0.003-0.54,0
	H14.9c-7.96,0-14.411-6.452-14.411-14.411S6.94,483.176,14.9,483.176h55.865V109.743c0-7.96,6.451-14.411,14.411-14.411
	s14.411,6.451,14.411,14.411v373.431h97.096V235.736c0-7.96,6.451-14.411,14.411-14.411c7.96,0,14.411,6.452,14.411,14.411v247.439
	h97.101V336.53c0-7.96,6.452-14.411,14.411-14.411c7.96,0,14.411,6.452,14.411,14.411v146.644h91.328
	c7.96,0,14.411,6.451,14.411,14.411c0,7.96-6.451,14.411-14.411,14.411H337.288C337.198,511.999,337.107,512,337.019,512z
	 M497.099,370.477h-74.14c-7.96,0-14.411-6.452-14.411-14.411c0-7.96,6.451-14.411,14.411-14.411h39.351L149.48,28.826H14.9
	c-7.96,0-14.411-6.451-14.411-14.411S6.94,0.004,14.9,0.004h140.245c3.784-0.085,7.601,1.329,10.492,4.218l317.052,317.051v-39.35
	c0-7.96,6.451-14.411,14.411-14.411c7.96,0,14.411,6.452,14.411,14.411v74.143c0-0.002,0-0.002,0-0.002v0.002
	c0,2.259-0.519,4.397-1.446,6.299c-0.413,0.85-0.916,1.67-1.507,2.444C505.924,368.255,501.77,370.477,497.099,370.477z"/>
<g>
</g>
<g>
</g>
<g>
</g>
<g>
</g>
<g>
</g>
<g>
</g>
<g>
</g>
<g>
</g>
<g>
</g>
<g>
</g>
<g>
</g>
<g>
</g>
<g>
</g>
<g>
</g>
<g>
</g>
</svg>
