<?xml version="1.0" encoding="UTF-8"?>
<svg width="32px" height="32px" viewBox="0 0 32 32" version="1.1" xmlns="http://www.w3.org/2000/svg" xmlns:xlink="http://www.w3.org/1999/xlink">
    <!-- Generator: Sketch 43.1 (39012) - http://www.bohemiancoding.com/sketch -->
    <title>average</title>
    <desc>Created with Sketch.</desc>
    <defs></defs>
    <g id="Page-1" stroke="none" stroke-width="1" fill="none" fill-rule="evenodd">
        <g id="average" transform="translate(1.000000, 1.000000)" stroke="#60A628" stroke-width="0.5" fill="#60A628" fill-rule="nonzero">
            <path d="M29.3177193,26.1988304 L3.74269006,26.1988304 L3.74269006,0.62380117 C3.74269006,0.279005848 3.46368421,0 3.11888889,0 C2.77409357,0 2.49508772,0.279005848 2.49508772,0.62380117 L2.49508772,26.1988304 L0.62374269,26.1988304 C0.279005848,26.1988304 0,26.4778363 0,26.8226316 C0,27.1674269 0.279005848,27.4464327 0.62380117,27.4464327 L2.4951462,27.4464327 L2.4951462,29.3177778 C2.4951462,29.6625731 2.77415205,29.9415789 3.11894737,29.9415789 C3.46368421,29.9415205 3.74269006,29.6625146 3.74269006,29.3177193 L3.74269006,27.4463743 L29.3177193,27.4463743 C29.6625146,27.4463743 29.9415205,27.1673684 29.9415205,26.8225731 C29.9415205,26.4777778 29.6625146,26.1988304 29.3177193,26.1988304 Z" id="Shape"></path>
            <path d="M6.86157895,21.2085965 C7.02116959,21.2085965 7.18076023,21.1476608 7.30263158,21.025848 L14.3469591,13.9815205 L17.6485965,17.2831579 C17.8922807,17.5268421 18.2870175,17.5268421 18.5306433,17.2831579 L27.4463158,8.36748538 L27.4463158,10.6043275 C27.4463158,10.9491228 27.7253216,11.2281287 28.070117,11.2281287 C28.4149123,11.2281287 28.6939181,10.9491228 28.6939181,10.6043275 L28.6939181,6.86163743 C28.6939181,6.51684211 28.4149123,6.23783626 28.070117,6.23783626 L24.3274269,6.23783626 C23.9826316,6.23783626 23.7036257,6.51684211 23.7036257,6.86163743 C23.7036257,7.20643275 23.9826316,7.4854386 24.3274269,7.4854386 L26.564269,7.4854386 L18.0896491,15.9600585 L14.7880117,12.6584211 C14.5443275,12.4147368 14.1495906,12.4147368 13.9059649,12.6584211 L6.4205848,20.1438012 C6.17690058,20.3874854 6.17690058,20.7822222 6.4205848,21.025848 C6.54239766,21.1476608 6.7019883,21.2085965 6.86157895,21.2085965 Z" id="Shape"></path>
        </g>
    </g>
</svg>