<?xml version="1.0" encoding="UTF-8"?>
<svg width="27px" height="34px" viewBox="0 0 27 34" version="1.1" xmlns="http://www.w3.org/2000/svg" xmlns:xlink="http://www.w3.org/1999/xlink">
    <!-- Generator: Sketch 43.1 (39012) - http://www.bohemiancoding.com/sketch -->
    <title>revenue-icon</title>
    <desc>Created with Sketch.</desc>
    <defs></defs>
    <g id="Page-1" stroke="none" stroke-width="1" fill="none" fill-rule="evenodd">
        <g id="revenue-icon" transform="translate(1.000000, 1.000000)" stroke="#60A628" stroke-width="0.4" fill="#60A628" fill-rule="nonzero">
            <path d="M18.7931696,9.04882651 L20.177653,9.04882651 C20.4720156,9.04882651 20.7099259,8.81035478 20.7099259,8.51655361 C20.7099259,8.22275244 20.4720156,7.9842807 20.177653,7.9842807 L19.492616,7.9842807 C20.9563821,6.78612086 22.2780507,4.56595712 21.7707914,0.466838207 C21.737232,0.200109162 21.5104873,0 21.2416998,0 C18.8112593,0 16.6763041,1.17794932 15.5526238,3.01005848 C15.0943314,1.7831423 14.2282729,0.783532164 12.9907524,0.0712982456 C12.8262612,-0.023454191 12.6240312,-0.023454191 12.45954,0.0712982456 C11.2219571,0.784031189 10.355961,1.7831423 9.89766862,3.01005848 C8.77454971,1.17794932 6.63953216,0 4.20859259,0 C3.94030409,0 3.71355945,0.200109162 3.6805614,0.466838207 C3.17330214,4.56595712 4.49497076,6.78612086 5.95873684,7.9842807 L5.2731384,7.9842807 C4.97877583,7.9842807 4.7408655,8.22275244 4.7408655,8.51655361 C4.7408655,8.81035478 4.97877583,9.04882651 5.2731384,9.04882651 L6.65762183,9.04882651 C3.12963743,12.8701131 -1.64067057,20.9379181 0.560842105,26.4965614 C1.99161014,30.1081326 6.00720468,31.9381209 12.4935984,31.9381209 L12.950269,31.9381209 C19.4425263,31.9381209 23.4591813,30.1081326 24.8899493,26.4965614 C27.0915244,20.9379805 22.321154,12.8701131 18.7931696,9.04882651 Z M4.68497466,1.08213645 C7.07973489,1.26153606 9.04333723,2.78649513 9.54579337,4.91296686 C9.60648733,5.16952827 9.85986745,5.34462378 10.1084444,5.32123197 C10.3713684,5.29890058 10.5784639,5.08806238 10.5954932,4.8251384 C10.698729,3.23892398 11.4152047,2.00564522 12.7257076,1.15555556 C14.0362105,2.00564522 14.7526238,3.23836257 14.855922,4.8251384 C14.8729513,5.08806238 15.0799844,5.29890058 15.3429708,5.32123197 C15.5979103,5.34094347 15.8443665,5.16952827 15.9056218,4.91296686 C16.4075789,2.78649513 18.3716803,1.26203509 20.7664405,1.08213645 C21.1629786,5.49102534 19.2004366,7.26992593 17.4109318,7.9842807 L8.04048343,7.9842807 C6.25097856,7.26992593 4.28843665,5.49158674 4.68497466,1.08213645 Z M23.9004444,26.1043275 C22.630924,29.3081326 18.8911033,30.9220429 12.7219025,30.8725146 C12.6463002,30.873076 12.5728811,30.873076 12.4978402,30.873076 C6.48782846,30.873076 2.80439766,29.2687719 1.550846,26.1043275 C-0.530900585,20.8495906 4.59340351,12.4448187 8.14852242,9.04888889 L17.3022066,9.04888889 C20.8573879,12.4448187 25.981692,20.8495906 23.9004444,26.1043275 Z" id="Shape"></path>
            <path d="M13.2574191,19.2676179 L13.2574191,15.0945185 C15.1565848,15.182347 15.8278363,15.7380741 16.167423,16.1659883 C16.3494425,16.3954152 16.6847875,16.4347758 16.9147758,16.2521949 C17.1447641,16.069614 17.1841248,15.7348304 17.0009825,15.5043431 C16.2669786,14.5792125 15.0666355,14.1092554 13.2574191,14.0325926 L13.2574191,13.262347 C13.2574191,12.9685458 13.0195088,12.7300741 12.7251462,12.7300741 C12.4307836,12.7300741 12.1928733,12.9685458 12.1928733,13.262347 L12.1928733,14.0442573 C9.8348538,14.2587758 8.58398441,15.7108148 8.56271345,17.1330994 C8.54194152,18.4968109 9.66350097,19.9185341 12.1928733,20.1873216 L12.1928733,24.2992281 C10.5629942,24.251883 10.0046472,23.9601404 9.24775049,23.1819727 C9.0422768,22.9711969 8.70537232,22.9663938 8.49509552,23.171306 C8.28431969,23.3762183 8.28007797,23.7136842 8.48442885,23.923961 C9.49526706,24.9629942 10.3474152,25.3110643 12.1928733,25.3632749 L12.1928733,26.1255361 C12.1928733,26.4193372 12.4307836,26.657809 12.7251462,26.657809 C13.0195088,26.657809 13.2574191,26.4193372 13.2574191,26.1255361 L13.2574191,25.3420039 C15.4089045,25.1514386 17.0052242,24.0448499 17.129232,22.5959298 C17.1793216,22.0184951 17.0233762,20.1251306 13.2574191,19.2676179 Z M12.1928733,19.1084912 C10.4160936,18.8843665 9.61397271,18.0002807 9.62676023,17.149692 C9.64110721,16.2346667 10.5305575,15.3074776 12.1928733,15.1222144 L12.1928733,19.1084912 Z M16.0694893,22.5049825 C16.0024327,23.2826511 14.9415673,24.0949396 13.2579805,24.2679142 L13.2579805,20.3587992 C15.4046628,20.9006784 16.1270019,21.8295517 16.0694893,22.5049825 Z" id="Shape"></path>
        </g>
    </g>
</svg>