<?xml version="1.0" encoding="UTF-8"?>
<svg width="27px" height="32px" viewBox="0 0 27 32" version="1.1" xmlns="http://www.w3.org/2000/svg" xmlns:xlink="http://www.w3.org/1999/xlink">
    <!-- Generator: Sketch 46.2 (44496) - http://www.bohemiancoding.com/sketch -->
    <title>name-icon</title>
    <desc>Created with Sketch.</desc>
    <defs></defs>
    <g id="Page-1" stroke="none" stroke-width="1" fill="none" fill-rule="evenodd">
        <g id="name-icon" transform="translate(1.000000, 1.000000)" stroke="#60A628" stroke-width="2" fill-rule="nonzero">
            <path d="M24.2307692,29.7115385 L0,29.7115385 L0,28.4203846 C0,26.9371154 0.808846154,25.5738462 2.11096154,24.8642308 L7.25769231,22.0569231 C8.11903846,21.5867308 8.65384615,20.685 8.65384615,19.7048077 L8.65384615,17.3867308 L8.65384615,17.3861538 L8.54192308,17.2523077 L8.52,17.2263462 C8.51884615,17.2246154 8.48307692,17.1813462 8.42480769,17.1051923 C8.42134615,17.1005769 8.41788462,17.0959615 8.41384615,17.0913462 C8.38326923,17.0515385 8.3475,17.0036538 8.30653846,16.9465385 C8.30596154,16.9453846 8.30538462,16.9448077 8.30480769,16.9436538 C8.21884615,16.8242308 8.11096154,16.6690385 7.99096154,16.4821154 C7.98807692,16.4780769 7.98576923,16.4734615 7.98288462,16.4694231 C7.92634615,16.3811538 7.86634615,16.2848077 7.80519231,16.1826923 C7.80057692,16.1751923 7.79596154,16.1676923 7.79134615,16.1596154 C7.66096154,15.9409615 7.5225,15.6934615 7.38461538,15.4194231 C7.38461538,15.4194231 7.38403846,15.4188462 7.38403846,15.4182692 C7.31076923,15.2711538 7.2375,15.1165385 7.16596154,14.9555769 L7.16596154,14.9555769 C7.15615385,14.9330769 7.14576923,14.9111538 7.13596154,14.8886538 L7.13596154,14.8886538 C7.10423077,14.8165385 7.0725,14.7409615 7.04019231,14.6630769 C7.02865385,14.6348077 7.01711538,14.6053846 7.00557692,14.5765385 C6.97557692,14.5009615 6.945,14.4248077 6.91269231,14.3376923 C6.85384615,14.1807692 6.79846154,14.0169231 6.74538462,13.8478846 L6.71365385,13.7451923 C6.71019231,13.7336538 6.70615385,13.7221154 6.70269231,13.71 C6.64846154,13.5276923 6.59653846,13.3413462 6.55269231,13.1498077 L6.50019231,12.9213462 L6.30346154,12.7944231 C5.96884615,12.5786538 5.76923077,12.2169231 5.76923077,11.8269231 L5.76923077,9.51923077 C5.76923077,9.19557692 5.90653846,8.89384615 6.15576923,8.66826923 L6.34615385,8.49692308 L6.34615385,4.90384615 L6.34615385,4.69961538 L6.33057692,4.6875 C6.31096154,4.27096154 6.33576923,2.99423077 7.26692308,1.93211538 C8.22288462,0.841153846 9.85442308,0.288461538 12.1153846,0.288461538 C14.3682692,0.288461538 15.9963462,0.837115385 16.9534615,1.92 C18.0767308,3.18980769 17.8909615,4.81442308 17.8898077,4.82826923 L17.8846154,8.49692308 L18.075,8.66884615 C18.3242308,8.89384615 18.4615385,9.19557692 18.4615385,9.51923077 L18.4615385,11.8269231 C18.4615385,12.3305769 18.1315385,12.7713462 17.6411538,12.9225 L17.3538462,13.0107692 L17.2615385,13.2963462 C16.8755769,14.4969231 16.3257692,15.6057692 15.6265385,16.5923077 C15.4551923,16.8351923 15.2884615,17.0503846 15.1436538,17.2148077 L15,17.3786538 L15,19.7584615 C15,20.7796154 15.5671154,21.6975 16.4803846,22.1544231 L21.9917308,24.9098077 C23.3728846,25.6003846 24.2307692,26.9884615 24.2307692,28.5328846 L24.2307692,29.7115385 Z" id="Shape"></path>
        </g>
    </g>
</svg>