<?xml version="1.0" encoding="iso-8859-1"?>
<!-- Generator: Adobe Illustrator 19.0.0, SVG Export Plug-In . SVG Version: 6.00 Build 0)  -->
<svg xmlns="http://www.w3.org/2000/svg" xmlns:xlink="http://www.w3.org/1999/xlink" version="1.1" id="Capa_1" x="0px" y="0px" viewBox="0 0 288.721 288.721" style="enable-background:new 0 0 288.721 288.721;" xml:space="preserve" width="512px" height="512px">
<g>
	<path id="Subdirectory_Arrow_Left" d="M127.559,75.803c-4.704-4.74-12.319-4.74-17.011,0l-94.715,95.785   c-4.86,4.596-5.065,12.692-0.313,17.48l95.027,96.098c4.704,4.74,12.319,4.74,17.011,0c4.704-4.74,4.704-12.427,0-17.167   l-74.648-75.49h211.709c6.641,0,12.03-5.39,12.03-12.03V12.03c0-6.641-5.39-12.03-12.03-12.03c-6.641,0-12.03,5.39-12.03,12.03   v156.226H53.116l74.444-75.274C132.263,88.23,132.263,80.543,127.559,75.803z" fill="#000"/>
	<g>
	</g>
	<g>
	</g>
	<g>
	</g>
	<g>
	</g>
	<g>
	</g>
	<g>
	</g>
</g>
<g>
</g>
<g>
</g>
<g>
</g>
<g>
</g>
<g>
</g>
<g>
</g>
<g>
</g>
<g>
</g>
<g>
</g>
<g>
</g>
<g>
</g>
<g>
</g>
<g>
</g>
<g>
</g>
<g>
</g>
</svg>
