<?xml version="1.0" encoding="UTF-8" standalone="no"?>
<svg width="105px" height="105px" viewBox="0 0 105 105" version="1.1" xmlns="http://www.w3.org/2000/svg" xmlns:xlink="http://www.w3.org/1999/xlink">
    <!-- Generator: Sketch 40.3 (33839) - http://www.bohemiancoding.com/sketch -->
    <title>calendar1</title>
    <desc>Created with Sketch.</desc>
    <defs>
        <path d="M4.03846154,104.133028 L100.871795,104.133028 C102.935897,104.133028 104.551282,102.399083 104.551282,100.183486 L104.551282,12.0412844 C104.551282,9.82568807 102.935897,8.09174312 100.871795,8.09174312 L82.6538462,8.09174312 L82.6538462,4.72018349 C82.6538462,2.50458716 81.0384615,0.770642202 78.974359,0.770642202 C76.9102564,0.770642202 75.2948718,2.50458716 75.2948718,4.72018349 L75.2948718,8.09174312 L30.2435897,8.09174312 L30.2435897,4.72018349 C30.2435897,2.50458716 28.6282051,0.770642202 26.5641026,0.770642202 C24.5,0.770642202 22.8846154,2.50458716 22.8846154,4.72018349 L22.8846154,8.09174312 L4.03846154,8.09174312 C1.97435897,8.09174312 0.358974359,9.82568807 0.358974359,12.0412844 L0.358974359,100.279817 C0.358974359,102.399083 2.06410256,104.133028 4.03846154,104.133028 L4.03846154,104.133028 Z M7.71794872,15.9908257 L22.8846154,15.9908257 L22.8846154,18.1100917 C22.8846154,20.3256881 24.5,22.059633 26.5641026,22.059633 C28.6282051,22.059633 30.2435897,20.3256881 30.2435897,18.1100917 L30.2435897,15.9908257 L75.2948718,15.9908257 L75.2948718,18.1100917 C75.2948718,20.3256881 76.9102564,22.059633 78.974359,22.059633 C81.0384615,22.059633 82.6538462,20.3256881 82.6538462,18.1100917 L82.6538462,15.9908257 L97.2820513,15.9908257 L97.2820513,26.2018349 L7.71794872,26.2018349 L7.71794872,15.9908257 L7.71794872,15.9908257 Z M7.71794872,34.1009174 L97.1923077,34.1009174 L97.1923077,96.3302752 L7.71794872,96.3302752 L7.71794872,34.1009174 L7.71794872,34.1009174 Z" id="path-1"></path>
        <mask id="mask-2" maskContentUnits="userSpaceOnUse" maskUnits="objectBoundingBox" x="0" y="0" width="104.192308" height="103.362385" fill="white">
            <use xlink:href="#path-1"></use>
        </mask>
        <path d="M78.974359,52.2110092 L26.025641,52.2110092 C23.9615385,52.2110092 22.3461538,53.9449541 22.3461538,56.1605505 C22.3461538,58.3761468 23.9615385,60.1100917 26.025641,60.1100917 L78.974359,60.1100917 C81.0384615,60.1100917 82.6538462,58.3761468 82.6538462,56.1605505 C82.6538462,53.9449541 81.0384615,52.2110092 78.974359,52.2110092 L78.974359,52.2110092 Z" id="path-3"></path>
        <mask id="mask-4" maskContentUnits="userSpaceOnUse" maskUnits="objectBoundingBox" x="0" y="0" width="60.3076923" height="7.89908257" fill="white">
            <use xlink:href="#path-3"></use>
        </mask>
        <path d="M52.5,71.2844037 L26.025641,71.2844037 C23.9615385,71.2844037 22.3461538,73.0183486 22.3461538,75.233945 C22.3461538,77.4495413 23.9615385,79.1834862 26.025641,79.1834862 L52.5,79.1834862 C54.5641026,79.1834862 56.1794872,77.4495413 56.1794872,75.233945 C56.1794872,73.0183486 54.5641026,71.2844037 52.5,71.2844037 L52.5,71.2844037 Z" id="path-5"></path>
        <mask id="mask-6" maskContentUnits="userSpaceOnUse" maskUnits="objectBoundingBox" x="0" y="0" width="33.8333333" height="7.89908257" fill="white">
            <use xlink:href="#path-5"></use>
        </mask>
    </defs>
    <g id="Page-1" stroke="none" stroke-width="1" fill="none" fill-rule="evenodd">
        <g id="calendar1" stroke="#F9F9F9" stroke-width="0.5" fill="#60A628">
            <use id="Shape" mask="url(#mask-2)" xlink:href="#path-1"></use>
            <use id="Shape" mask="url(#mask-4)" xlink:href="#path-3"></use>
            <use id="Shape" mask="url(#mask-6)" xlink:href="#path-5"></use>
        </g>
    </g>
</svg>