<svg xmlns="http://www.w3.org/2000/svg" xmlns:xlink="http://www.w3.org/1999/xlink" preserveAspectRatio="xMidYMid" width="32" height="32" viewBox="0 0 32 32">
  <defs>
    <style>
      .cls-1 {
        fill: #f2f2f2;
      }

      .cls-1, .cls-2 {
        fill-rule: evenodd;
      }

      .cls-2 {
        fill: #60a628;
      }
    </style>
  </defs>
  <g>
    <path d="M4.000,-0.000 L28.000,-0.000 C30.209,-0.000 32.000,1.791 32.000,4.000 L32.000,28.000 C32.000,30.209 30.209,32.000 28.000,32.000 L4.000,32.000 C1.791,32.000 0.000,30.209 0.000,28.000 L0.000,4.000 C0.000,1.791 1.791,-0.000 4.000,-0.000 Z" class="cls-1"/>
    <path d="M9.000,15.000 L23.000,15.000 C23.552,15.000 24.000,15.448 24.000,16.000 C24.000,16.552 23.552,17.000 23.000,17.000 L9.000,17.000 C8.448,17.000 8.000,16.552 8.000,16.000 C8.000,15.448 8.448,15.000 9.000,15.000 Z" class="cls-2"/>
  </g>
</svg>
