<?xml version="1.0" encoding="UTF-8" standalone="no"?>
<svg width="62px" height="54px" viewBox="0 0 62 54" version="1.1" xmlns="http://www.w3.org/2000/svg" xmlns:xlink="http://www.w3.org/1999/xlink">
    <!-- Generator: Sketch 40.3 (33839) - http://www.bohemiancoding.com/sketch -->
    <title>folder (4)</title>
    <desc>Created with Sketch.</desc>
    <defs></defs>
    <g id="Page-1" stroke="none" stroke-width="1" fill="none" fill-rule="evenodd">
        <g id="folder-(4)" transform="translate(1.000000, 0.000000)" fill="#000" stroke="#000">
            <g id="Group">
                <path d="M26.525,7.5 L21.813,0.918 L21.812,0.917 L21.515,0.5 L0,0.5 L0,53.5 L60,53.5 L60,7.5 L26.525,7.5 L26.525,7.5 Z M58,9.5 L58,14.5 L31.537,14.5 L27.958,9.5 L58,9.5 L58,9.5 Z M2,51.5 L2,2.5 L20.485,2.5 L25.485,9.5 L25.497,9.5 L30.187,16.051 C30.382,16.323 30.689,16.468 31,16.469 L31,16.5 L58,16.5 L58,51.5 L2,51.5 L2,51.5 Z" id="Shape"></path>
                <polygon id="Shape" points="21.293 29.793 22.707 31.207 29 24.914 29 42.5 31 42.5 31 24.914 37.293 31.207 38.707 29.793 30 21.086"></polygon>
            </g>
        </g>
    </g>
</svg>