<?xml version="1.0" encoding="UTF-8" standalone="no"?>
<svg width="33px" height="42px" viewBox="0 0 33 42" version="1.1" xmlns="http://www.w3.org/2000/svg" xmlns:xlink="http://www.w3.org/1999/xlink">
    <!-- Generator: Sketch 40.3 (33839) - http://www.bohemiancoding.com/sketch -->
    <title>duration</title>
    <desc>Created with Sketch.</desc>
    <defs></defs>
    <g id="Page-1" stroke="none" stroke-width="1" fill="none" fill-rule="evenodd">
        <g id="duration" transform="translate(0.000000, 1.000000)" stroke="#60A628" fill="#60A628">
            <path d="M32.0540645,19.2157052 L2.11858065,0.167624018 C1.80167742,-0.0333332383 1.39083871,-0.0542861276 1.05225806,0.108574967 C0.712645161,0.273340869 0.5,0.597158249 0.5,0.951452559 L0.5,39.0476149 C0.5,39.4019092 0.712645161,39.726679 1.05225806,39.8914449 C1.20296774,39.9638276 1.36812903,40.000019 1.53225806,40.000019 C1.73767742,40.000019 1.94206452,39.9428747 2.11858065,39.8314435 L32.0540645,20.7833623 C32.3338065,20.6052627 32.5,20.3128747 32.5,19.9995337 C32.5,19.6861928 32.3327742,19.3938048 32.0540645,19.2157052 L32.0540645,19.2157052 Z M2.56451613,37.2342376 L2.56451613,2.76578229 L29.6499355,20.0004861 L2.56451613,37.2342376 L2.56451613,37.2342376 Z" id="Shape"></path>
        </g>
    </g>
</svg>