<?xml version="1.0" encoding="iso-8859-1"?>
<!-- Generator: Adobe Illustrator 19.0.0, SVG Export Plug-In . SVG Version: 6.00 Build 0)  -->
<svg xmlns="http://www.w3.org/2000/svg" xmlns:xlink="http://www.w3.org/1999/xlink" version="1.1" id="Layer_1" x="0px" y="0px" viewBox="0 0 512 512" style="enable-background:new 0 0 512 512;" xml:space="preserve" width="512px" height="512px">
<g>
	<g>
		<path d="M495.305,55.653h-38.956V16.696c0-9.22-7.475-16.696-16.696-16.696h-33.391c-9.22,0-16.696,7.475-16.696,16.696v38.956    h-38.956c-9.22,0-16.696,7.475-16.696,16.696v33.391c0,9.22,7.475,16.696,16.696,16.696h38.956v38.956    c0,9.22,7.475,16.696,16.696,16.696h33.391c9.22,0,16.696-7.475,16.696-16.696v-38.956h38.956c9.22,0,16.696-7.475,16.696-16.696    V72.348C512,63.128,504.525,55.653,495.305,55.653z" fill="#FFFFFF"/>
	</g>
</g>
<g>
	<g>
		<path d="M399.84,293.485c-0.813-8.619-8.049-15.224-16.707-15.224H217.044c-9.22,0-16.696,7.475-16.696,16.696v33.391    c0,9.22,7.475,16.696,16.696,16.696h112.64c-14.803,57.544-67.117,100.174-129.336,100.174    c-78.634,0-141.549-68.197-132.74-148.59c6.118-55.837,59.379-110.199,115.086-117.398c38.224-4.94,73.85,6.449,100.887,28.059    c6.67,5.331,16.209,4.921,22.247-1.117l23.712-23.712c6.899-6.899,6.531-18.33-0.956-24.585    c-34.778-29.057-79.514-46.569-128.237-46.569c-117.979,0-212.577,102.68-199.059,223.311    c10.417,92.952,86.398,167.565,179.508,176.45c107.571,10.263,200.17-65.251,217.005-166.022    c1.892-10.908,2.894-22.038,2.894-33.391C400.696,305.532,400.404,299.476,399.84,293.485z" fill="#FFFFFF"/>
	</g>
</g>
<g>
</g>
<g>
</g>
<g>
</g>
<g>
</g>
<g>
</g>
<g>
</g>
<g>
</g>
<g>
</g>
<g>
</g>
<g>
</g>
<g>
</g>
<g>
</g>
<g>
</g>
<g>
</g>
<g>
</g>
</svg>
