<?xml version="1.0" encoding="iso-8859-1"?>
<!-- Generator: Adobe Illustrator 19.0.0, SVG Export Plug-In . SVG Version: 6.00 Build 0)  -->
<svg xmlns="http://www.w3.org/2000/svg" xmlns:xlink="http://www.w3.org/1999/xlink" version="1.1" id="Capa_1" x="0px" y="0px" viewBox="0 0 55.986 55.986" style="enable-background:new 0 0 55.986 55.986;" xml:space="preserve" width="512px" height="512px">
<g>
	<g>
		<path d="M46.316,49.403c-1.744-0.618-2.924-1.296-3.824-2.197c-0.258-0.259-0.497-0.567-0.727-0.878    c0.205-0.167,0.409-0.333,0.611-0.496c0.966-0.78,1.877-1.517,2.718-2.378c5.594-5.723,8.056-12.717,7.318-20.789v0    C51.457,12.213,44.094,3.415,34.092,0.772C23.327-2.076,11.711,3.156,6.469,13.207c-1.735,3.328-2.716,6.868-2.914,10.521    c-0.005,0.099-0.028,0.196-0.049,0.294l-0.061,2.126l0.125,1.139c0.078,0.694,0.157,1.389,0.254,2.081    c1.432,10.295,9.807,19.061,19.914,20.844c3.124,0.55,6.249,0.5,9.342-0.159c0.904,1.566,2.379,3.681,4.88,4.771    c0.813,0.354,1.654,0.556,2.47,0.751c0.333,0.08,0.667,0.16,0.993,0.25c0.158,0.043,0.318,0.076,0.479,0.107l2.002,0.053    l3.532-0.532l0.001-1.742c0.003-1.012,0.005-2.013-0.021-3.016C47.396,49.971,46.712,49.542,46.316,49.403z M43.755,53.986h-1.392    l-0.079-0.016c-0.109-0.021-0.219-0.042-0.328-0.072c-0.351-0.096-0.705-0.182-1.061-0.267c-0.764-0.183-1.485-0.356-2.136-0.639    c-1.578-0.688-2.823-1.95-4.037-4.095c-0.423-0.743-1.061-1.024-1.895-0.837c-2.856,0.64-5.799,0.703-8.742,0.183    C14.809,46.607,7.12,38.554,5.805,29.094c-0.094-0.676-0.171-1.354-0.247-2.031l-0.112-0.971v-1.565l0.019-0.101    c0.04-0.196,0.077-0.392,0.087-0.589c0.183-3.367,1.088-6.632,2.69-9.705C13.057,4.903,23.711,0.093,33.58,2.705    c9.193,2.43,15.962,10.524,16.841,20.141c0.683,7.462-1.591,13.925-6.757,19.21c-0.759,0.778-1.626,1.479-2.544,2.22    c-0.449,0.363-0.907,0.734-1.369,1.125l-0.732,0.622l0.592,0.757c0.121,0.155,0.242,0.321,0.367,0.492    c0.313,0.429,0.667,0.914,1.1,1.347c1.366,1.368,3.024,2.107,4.351,2.591c0.015,0.828,0.012,1.658,0.01,2.497L43.755,53.986z" fill="#000"/>
		<path d="M41.064,20.078C40.807,16,39.175,12.44,36.214,9.497c-4.2-4.176-10.334-4.559-14.917-0.932    c-3.646,2.886-5.674,6.987-6.027,12.189c-0.129,1.903-0.104,3.83-0.079,5.692c0.01,0.782,0.021,1.565,0.019,2.346    c-0.003,3.015,0.689,5.865,2.056,8.472c1.899,3.622,4.475,5.896,7.873,6.951c1.022,0.317,2.032,0.476,3.044,0.476    c1.028,0,2.058-0.164,3.104-0.491l1.203-0.377l-0.641-1.086c-1.45-2.457-3.31-3.979-5.666-4.632v-2.963    c3.855,0.078,7.142,1.56,10.02,4.512l0.821,0.842l0.699-0.946c2.054-2.78,3.178-5.729,3.34-8.763    C41.272,26.89,41.272,23.388,41.064,20.078z M39.065,30.68c-0.122,2.302-0.895,4.564-2.299,6.738    c-3.306-3.003-7.234-4.447-11.621-4.267l-0.962,0.037v6.543l0.818,0.151c1.768,0.327,3.175,1.201,4.349,2.717    c-1.209,0.181-2.405,0.082-3.619-0.296c-2.865-0.89-5.055-2.842-6.694-5.969c-1.215-2.317-1.83-4.854-1.827-7.541    c0.001-0.791-0.01-1.583-0.02-2.374c-0.024-1.823-0.049-3.708,0.075-5.53c0.313-4.616,2.087-8.235,5.273-10.756    c1.75-1.386,3.732-2.071,5.704-2.071c2.335,0,4.655,0.96,6.56,2.853c2.604,2.588,4.039,5.713,4.265,9.288    C39.272,23.435,39.271,26.861,39.065,30.68z" fill="#000"/>
	</g>
</g>
<g>
</g>
<g>
</g>
<g>
</g>
<g>
</g>
<g>
</g>
<g>
</g>
<g>
</g>
<g>
</g>
<g>
</g>
<g>
</g>
<g>
</g>
<g>
</g>
<g>
</g>
<g>
</g>
<g>
</g>
</svg>
